<svg width="24" height="23" viewBox="0 0 24 23" fill="none" xmlns="http://www.w3.org/2000/svg">
<path d="M12.244 3.83301C12.778 3.83588 14.114 3.84834 15.534 3.90297L16.038 3.92405C17.467 3.98826 18.895 4.09942 19.604 4.28822C20.549 4.54313 21.291 5.28488 21.542 6.22597C21.942 7.72097 21.992 10.6362 21.998 11.3425L21.999 11.4882V11.6549C21.992 12.3612 21.942 15.2774 21.542 16.7715C21.288 17.7154 20.545 18.4581 19.604 18.7092C18.895 18.898 17.467 19.0092 16.038 19.0734L15.534 19.0954C14.114 19.1491 12.778 19.1625 12.244 19.1644L12.009 19.1654H11.754C10.624 19.1587 5.898 19.1098 4.394 18.7092C3.45 18.4543 2.707 17.7125 2.456 16.7715C2.056 15.2765 2.006 12.3612 2 11.6549V11.3425C2.006 10.6362 2.056 7.72001 2.456 6.22597C2.71 5.28201 3.453 4.5393 4.395 4.28917C5.898 3.88763 10.625 3.83876 11.755 3.83301H12.244ZM9.999 8.14551V14.8538L15.999 11.4997L9.999 8.14551Z" fill="white"/>
</svg>
